# xmcd
#
# Track frame offsets: 
#        150
#        11855
#        24695
#        34347
#        44830
#        53731
#        63488
#        75498
#        85479
#        96565
#        108265
#        119769
#        129700
#        140728
#        152724
#        161158
#        171559
#        182701
#        191819
#        202317
#        211586
#        222937
#        235115
#        248453
#        258492
#        269893
#        281037
#        291849
#        301841
#        312595
#        323490
#        334763
#        346070
#        356902
#
# Disc length: 4903 seconds
#
# Revision: 0
# Processed by: cddbd v1.5.2PL0 Copyright (c) Steve Scherf et al.
# Submitted via: ExactAudioCopy v1.1
#
DISCID=25132522
DTITLE=George Jones - CD2_The Complete Collection 1960-62
DYEAR=2016
DGENRE=Country
TTITLE0=Sings Country And Western Hits, 1962 - Heartache By The Number
TTITLE1=Sings Country And Western Hits, 1962 - I Love You Because
TTITLE2=Sings Country And Western Hits, 1962 - If You've Got The Money
TTITLE2=(I've Got The Time)
TTITLE3=Sings Country And Western Hits, 1962 - Talk To Me Lonesome Hea
TTITLE3=rt
TTITLE4=Sings Country And Western Hits, 1962 - Poor Man's Riches
TTITLE5=Sings Country And Western Hits, 1962 - Poor Man's Riches
TTITLE6=Sings Country And Western Hits, 1962 - Oh Lonesome Me
TTITLE7=Sings Country And Western Hits, 1962 - I Walk The Line
TTITLE8=Sings Country And Western Hits, 1962 - Life To Go
TTITLE9=Sings Country And Western Hits, 1962 - Window Up Above
TTITLE10=Sings Country And Western Hits, 1962 - Just One More
TTITLE11=Sings Country And Western Hits, 1962 - It's Been So Long, Dar
TTITLE11=ling
TTITLE12=Homecoming In Heaven,1962 - Someone's Watching Over You
TTITLE13=Homecoming In Heaven,1962 - He Made Me Free
TTITLE14=Homecoming In Heaven,1962 - Beacon In The Night
TTITLE15=Homecoming In Heaven,1962 - Matthew Twenty Four
TTITLE16=Homecoming In Heaven,1962 - Wandering Soul
TTITLE17=Homecoming In Heaven,1962 - He's So Good To Me
TTITLE18=Homecoming In Heaven,1962 - Magic Valley
TTITLE19=Homecoming In Heaven,1962 - Kneel At The Feet Of Jesus
TTITLE20=Homecoming In Heaven,1962 - Homecoming In Heaven
TTITLE21=Homecoming In Heaven,1962 - My Cup Runneth Over
TTITLE22=My Favorites Of Hank Williams, 1962 - Wedding Balls
TTITLE23=My Favorites Of Hank Williams, 1962 - I Heard You Crying In Y
TTITLE23=our Sleep
TTITLE24=My Favorites Of Hank Williams, 1962 - I Just Don't Like This 
TTITLE24=Kind Of Living
TTITLE25=My Favorites Of Hank Williams, 1962 - You Win Again
TTITLE26=My Favorites Of Hank Williams, 1962 - I Could Never Be Ashame
TTITLE26=d Of You
TTITLE27=My Favorites Of Hank Williams, 1962 - You're Gonna Change
TTITLE28=My Favorites Of Hank Williams, 1962 - Lonesome Whistle
TTITLE29=My Favorites Of Hank Williams, 1962 - A House Without Love
TTITLE30=My Favorites Of Hank Williams, 1962 - You Cheating Heart
TTITLE31=My Favorites Of Hank Williams, 1962 - They'll Never Take Her 
TTITLE31=Love From Me
TTITLE32=My Favorites Of Hank Williams, 1962 - Mansion On The Hill
TTITLE33=My Favorites Of Hank Williams, 1962 - Take These Chains From 
TTITLE33=My Heart
EXTD=
EXTT0=
EXTT1=
EXTT2=
EXTT3=
EXTT4=
EXTT5=
EXTT6=
EXTT7=
EXTT8=
EXTT9=
EXTT10=
EXTT11=
EXTT12=
EXTT13=
EXTT14=
EXTT15=
EXTT16=
EXTT17=
EXTT18=
EXTT19=
EXTT20=
EXTT21=
EXTT22=
EXTT23=
EXTT24=
EXTT25=
EXTT26=
EXTT27=
EXTT28=
EXTT29=
EXTT30=
EXTT31=
EXTT32=
EXTT33=
PLAYORDER=
